<?xml version="1.0" encoding="utf-8"?>
<!-- Generator: Adobe Illustrator 16.0.3, SVG Export Plug-In . SVG Version: 6.00 Build 0)  -->
<!DOCTYPE svg PUBLIC "-//W3C//DTD SVG 1.1//EN" "http://www.w3.org/Graphics/SVG/1.1/DTD/svg11.dtd">
<svg version="1.1" id="Layer_1" xmlns="http://www.w3.org/2000/svg" xmlns:xlink="http://www.w3.org/1999/xlink" x="0px" y="0px"
	 width="96px" height="42px" viewBox="0 0 96 42" enable-background="new 0 0 96 42" xml:space="preserve">
<g>
	<g>
		<path fill="#F89821" d="M30.491,29.132h-3.59l3.087-6.263h0.037L30.491,29.132L30.491,29.132z M30.663,31.947l0.222,2.486h3.932
			l-1.324-14.46h-5.859l-7.406,14.46h4.01l1.24-2.486H30.663L30.663,31.947z"/>
		<polygon fill="#F89821" points="40.304,28.109 40.877,28.109 43.694,24.312 47.34,24.312 43.45,29.172 45.836,34.434 
			41.966,34.434 40.412,30.326 39.829,30.326 38.958,34.434 35.644,34.434 38.714,19.974 42.031,19.974 40.304,28.109 		"/>
		<path fill="#F89821" d="M51.585,30.252c1.08,0,1.794,0.074,1.615,0.924c-0.229,1.059-0.688,1.234-2.077,1.234
			c-0.503,0-1.443,0-1.21-1.103C50.107,30.384,50.772,30.252,51.585,30.252L51.585,30.252z M52.508,34.434h3.312l1.345-6.324
			c0.739-3.49-0.597-3.913-3.989-3.913c-2.367,0-4.656-0.021-5.328,3.124h3.318c0.189-0.91,0.754-1.099,1.581-1.099
			c1.442,0,1.379,0.598,1.178,1.54l-0.343,1.602h-0.15c-0.123-1.156-1.574-1.139-2.518-1.139c-2.392,0-3.82,0.751-4.341,3.184
			c-0.545,2.58,0.683,3.139,2.995,3.139c1.159,0,2.713-0.227,3.256-1.619h0.114L52.508,34.434L52.508,34.434z"/>
		<path fill="#F89821" d="M62.517,24.312l-0.306,1.424h0.136c0.655-1.192,1.966-1.54,3.102-1.54c1.429,0,2.839,0.249,2.642,1.984
			h0.156c0.484-1.446,1.967-1.984,3.236-1.984c2.336,0,3.325,0.966,2.824,3.319l-1.475,6.918H69.52l1.248-5.861
			c0.164-1.057,0.352-1.83-0.942-1.83c-1.288,0-1.724,0.86-1.953,1.945l-1.223,5.746h-3.317l1.305-6.129
			c0.16-0.925,0.232-1.562-0.922-1.562c-1.368,0-1.776,0.732-2.027,1.945l-1.228,5.746h-3.313L59.3,24.312H62.517L62.517,24.312z"/>
		<path fill="#F89821" d="M79.526,30.252c1.072,0,1.79,0.074,1.612,0.924c-0.221,1.059-0.686,1.234-2.078,1.234
			c-0.498,0-1.439,0-1.21-1.103C78.049,30.384,78.709,30.252,79.526,30.252L79.526,30.252z M80.443,34.434h3.315l1.344-6.324
			c0.74-3.49-0.591-3.913-3.983-3.913c-2.373,0-4.668-0.021-5.331,3.124h3.319c0.188-0.91,0.754-1.099,1.576-1.099
			c1.449,0,1.379,0.598,1.184,1.54l-0.345,1.602h-0.153c-0.124-1.156-1.57-1.139-2.518-1.139c-2.389,0-3.826,0.751-4.338,3.184
			c-0.548,2.58,0.684,3.139,2.995,3.139c1.157,0,2.71-0.227,3.257-1.619h0.113L80.443,34.434L80.443,34.434z"/>
		<path fill="#F89821" d="M88.537,34.434h-3.311l2.146-10.121h3.317L88.537,34.434L88.537,34.434z M91.071,22.52H87.76l0.535-2.546
			h3.317L91.071,22.52L91.071,22.52z"/>
	</g>
	<g>
		<path fill="#1096D4" d="M21.913,37.928c-7.352-2.246-12.696-9.041-12.696-17.073c0-8.118,5.459-14.969,12.937-17.141
			C22.916,3.495,22.715,3,21.796,3c-9.94,0-17.998,7.995-17.998,17.855c0,9.864,8.058,17.858,17.998,17.858
			C22.715,38.713,22.755,38.183,21.913,37.928z"/>
		<path fill="#1096D4" d="M12.625,25.038c-0.05-0.476-0.074-0.962-0.074-1.452c0-7.831,6.348-14.178,14.18-14.178
			c7.401,0,9.625,3.308,9.9,3.091c0.303-0.238-2.687-6.792-11.379-6.792c-7.833,0-14.18,6.349-14.18,14.18
			c0,1.809,0.338,3.539,0.958,5.128C12.29,25.684,12.693,25.686,12.625,25.038z"/>
		<path fill="#1096D4" d="M18.565,14.821c3.685-1.607,8.313-1.65,12.865-0.065c3.057,1.069,4.83,2.589,4.974,2.527
			c0.24-0.104-1.78-3.301-5.423-4.681c-4.412-1.674-9.167-0.8-12.63,1.916C17.97,14.817,18.112,15.019,18.565,14.821z"/>
	</g>
</g>
</svg>
